<svg width="53" height="39" viewBox="0 0 53 39" fill="none" xmlns="http://www.w3.org/2000/svg">
<path fill-rule="evenodd" clip-rule="evenodd" d="M28.3742 0.583037C27.2158 -0.194346 25.7001 -0.194346 24.5406 0.583037L0.506847 16.6916C-0.428 17.3183 0.0155984 18.7756 1.14218 18.7756H8.82518C8.85354 18.7756 8.87623 37.6503 8.87623 37.6503C8.87623 38.396 9.48207 39 10.2286 39H16.4549C17.2252 39 17.8503 38.3756 17.8503 37.6062V27.9376C17.8503 23.3447 21.2936 19.2855 25.8827 18.9841C28.4831 18.813 30.852 19.8023 32.5311 21.4919C34.0967 23.0444 35.061 25.1975 35.061 27.5546V37.7172C35.061 38.4255 35.6362 39 36.3442 39H42.6941C43.4406 39 44.0465 38.3949 44.0465 37.6492V18.8266C44.0465 18.7994 51.8951 18.7756 51.8951 18.7756C52.9843 18.7756 53.4142 17.3659 52.51 16.7596L28.3742 0.583037Z" fill="#B7BBB2"/>
<path fill-rule="evenodd" clip-rule="evenodd" d="M28 26.5005C28 27.3288 27.3288 28 26.5005 28C25.6722 28 25 27.3288 25 26.5005C25 25.6722 25.6722 25 26.5005 25C27.3288 25 28 25.6722 28 26.5005Z" fill="#B7BBB2"/>
<path fill-rule="evenodd" clip-rule="evenodd" d="M26.516 34.9911C26.414 34.9911 26.331 34.8925 26.331 34.7714V26.2096C26.331 26.0896 26.414 25.9911 26.516 25.9911C26.617 25.9911 26.7 26.0896 26.7 26.2096V34.7714C26.7 34.8925 26.617 34.9911 26.516 34.9911Z" fill="#B7BBB2"/>
<path fill-rule="evenodd" clip-rule="evenodd" d="M29.1985 39H23.8006C23.3881 39 23.0363 38.71 22.9653 38.312L22.0131 32.9758C21.9215 32.4665 22.3214 32 22.8473 32H30.1518C30.6789 32 31.0777 32.4665 30.9871 32.9758L30.0338 38.312C29.9628 38.71 29.6099 39 29.1985 39Z" fill="#B7BBB2"/>
<path fill-rule="evenodd" clip-rule="evenodd" d="M24.6243 23.693C24.9271 24.4007 25.0429 25.1269 24.986 25.7346C24.9626 25.9825 24.7757 26.0749 24.5847 25.9336C24.1163 25.5846 23.6773 25.0139 23.3745 24.3051C23.0717 23.5974 22.9559 22.8723 23.0148 22.2646C23.0382 22.0156 23.2262 21.9243 23.4182 22.0689C23.8856 22.4211 24.3215 22.9853 24.6243 23.693Z" fill="#B7BBB2"/>
<path fill-rule="evenodd" clip-rule="evenodd" d="M29.5191 24.3883C29.1973 25.092 28.7698 25.6351 28.3342 25.9471C28.1556 26.0758 28.0009 25.9608 28 25.6989C27.9974 25.0612 28.1591 24.3143 28.4809 23.6094C28.8027 22.9057 29.2302 22.3637 29.6667 22.0517C29.8453 21.9242 30.0009 22.0415 30 22.3045C29.9991 22.9456 29.8409 23.6846 29.5191 24.3883Z" fill="#B7BBB2"/>
<path fill-rule="evenodd" clip-rule="evenodd" d="M26.9991 22.0149C26.9865 22.7296 26.8464 23.3785 26.6287 23.8557C26.5395 24.0514 26.3904 24.0474 26.3078 23.8477C26.1057 23.3596 25.9884 22.6987 26.0009 21.9829C26.0135 21.2682 26.1529 20.6203 26.372 20.1431C26.4613 19.9474 26.611 19.9534 26.6929 20.1551C26.8936 20.6472 27.0116 21.3001 26.9991 22.0149Z" fill="#B7BBB2"/>
</svg>
