<svg width="16" height="17" viewBox="0 0 16 17" fill="none" xmlns="http://www.w3.org/2000/svg">
<mask id="mask0_28_4" style="mask-type:luminance" maskUnits="userSpaceOnUse" x="0" y="0" width="16" height="17">
<path fill-rule="evenodd" clip-rule="evenodd" d="M16 0.103271H0V16.1033H16V0.103271Z" fill="white"/>
</mask>
<g mask="url(#mask0_28_4)">
<path fill-rule="evenodd" clip-rule="evenodd" d="M14.3905 11.3368C14.3905 13.0805 12.9771 14.4938 11.2335 14.4938H4.76634C3.023 14.4938 1.60938 13.0805 1.60938 11.3368V4.86967C1.60938 3.12633 3.023 1.71271 4.76634 1.71271H11.2335C12.9771 1.71271 14.3905 3.12633 14.3905 4.86967V11.3368ZM11.2335 0.10321H4.76633C2.13821 0.10321 -0.00012207 2.24154 -0.00012207 4.86966V11.3368C-0.00012207 13.9649 2.13821 16.1033 4.76633 16.1033H11.2335C13.8619 16.1033 15.9999 13.9649 15.9999 11.3368V4.86966C15.9999 2.24154 13.8619 0.10321 11.2335 0.10321Z" fill="white"/>
</g>
<path fill-rule="evenodd" clip-rule="evenodd" d="M8.04903 10.6583C6.61087 10.6583 5.44531 9.49271 5.44531 8.05456C5.44531 6.61641 6.61087 5.45084 8.04903 5.45084C9.48718 5.45084 10.6527 6.61641 10.6527 8.05456C10.6527 9.4924 9.48687 10.6583 8.04903 10.6583ZM8.04907 3.79321C5.69952 3.79321 3.78772 5.70502 3.78772 8.05456C3.78772 10.4041 5.69952 12.3156 8.04907 12.3156C10.3986 12.3156 12.3101 10.4041 12.3101 8.05456C12.3101 5.70502 10.3986 3.79321 8.04907 3.79321Z" fill="white"/>
<path fill-rule="evenodd" clip-rule="evenodd" d="M12.3101 2.84628C11.7871 2.84628 11.3632 3.27021 11.3632 3.79321C11.3632 4.31622 11.7871 4.74015 12.3101 4.74015C12.8331 4.74015 13.257 4.31622 13.257 3.79321C13.257 3.27021 12.8331 2.84628 12.3101 2.84628Z" fill="white"/>
</svg>
