<svg width="38" height="40" viewBox="0 0 38 40" fill="none" xmlns="http://www.w3.org/2000/svg">
<path fill-rule="evenodd" clip-rule="evenodd" d="M4.5 9C6.98528 9 9 6.98528 9 4.5C9 2.01472 6.98528 0 4.5 0C2.01472 0 0 2.01472 0 4.5C0 6.98528 2.01472 9 4.5 9Z" fill="#B7BBB2"/>
<path fill-rule="evenodd" clip-rule="evenodd" d="M18.5 9C20.9853 9 23 6.98528 23 4.5C23 2.01472 20.9853 0 18.5 0C16.0147 0 14 2.01472 14 4.5C14 6.98528 16.0147 9 18.5 9Z" fill="#B7BBB2"/>
<path fill-rule="evenodd" clip-rule="evenodd" d="M33.5 9C35.9853 9 38 6.98528 38 4.5C38 2.01472 35.9853 0 33.5 0C31.0147 0 29 2.01472 29 4.5C29 6.98528 31.0147 9 33.5 9Z" fill="#B7BBB2"/>
<path fill-rule="evenodd" clip-rule="evenodd" d="M4.5 24C6.98528 24 9 21.9853 9 19.5C9 17.0147 6.98528 15 4.5 15C2.01472 15 0 17.0147 0 19.5C0 21.9853 2.01472 24 4.5 24Z" fill="#B7BBB2"/>
<path fill-rule="evenodd" clip-rule="evenodd" d="M18.5 24C20.9853 24 23 21.9853 23 19.5C23 17.0147 20.9853 15 18.5 15C16.0147 15 14 17.0147 14 19.5C14 21.9853 16.0147 24 18.5 24Z" fill="#B7BBB2"/>
<path fill-rule="evenodd" clip-rule="evenodd" d="M33.5 24C35.9853 24 38 21.9853 38 19.5C38 17.0147 35.9853 15 33.5 15C31.0147 15 29 17.0147 29 19.5C29 21.9853 31.0147 24 33.5 24Z" fill="#B7BBB2"/>
<path fill-rule="evenodd" clip-rule="evenodd" d="M4.5 40C6.98528 40 9 37.9853 9 35.5C9 33.0147 6.98528 31 4.5 31C2.01472 31 0 33.0147 0 35.5C0 37.9853 2.01472 40 4.5 40Z" fill="#B7BBB2"/>
<path fill-rule="evenodd" clip-rule="evenodd" d="M18.5 40C20.9853 40 23 37.9853 23 35.5C23 33.0147 20.9853 31 18.5 31C16.0147 31 14 33.0147 14 35.5C14 37.9853 16.0147 40 18.5 40Z" fill="#B7BBB2"/>
<path fill-rule="evenodd" clip-rule="evenodd" d="M33.5 40C35.9853 40 38 37.9853 38 35.5C38 33.0147 35.9853 31 33.5 31C31.0147 31 29 33.0147 29 35.5C29 37.9853 31.0147 40 33.5 40Z" fill="#B7BBB2"/>
</svg>
