<svg width="16" height="16" viewBox="0 0 16 16" fill="none" xmlns="http://www.w3.org/2000/svg">
<path fill-rule="evenodd" clip-rule="evenodd" d="M5.00981 14C10.1843 14 14.3792 10.127 14.3792 5.34973C14.3792 5.23077 14.3768 5.11236 14.3714 4.99449C14.5587 4.85845 15.7166 4.00147 16 3.45071C16 3.45071 15.0598 3.81146 14.14 3.89627C14.2241 3.84175 15.4088 3.09712 15.5693 2.20929C15.5693 2.20929 14.9047 2.53699 13.9735 2.82339C13.8196 2.87075 13.658 2.91757 13.4921 2.96053C12.892 2.36901 12.0389 2 11.0922 2C9.27572 2 7.80403 3.35818 7.80403 5.0336C7.80403 5.27042 7.83386 5.50064 7.88934 5.7215C7.63581 5.71214 3.77078 5.51166 1.14179 2.57224C1.14179 2.57224 -0.429514 4.55278 2.07778 6.58895C2.07778 6.58895 1.31598 6.56141 0.657992 6.19846C0.657992 6.19846 0.41639 8.59758 3.25655 9.21113C3.25655 9.21113 2.69759 9.40665 1.80635 9.2673C1.80635 9.2673 2.30446 11.206 4.82786 11.3872C4.82786 11.3872 2.83241 13.051 0 12.6611C1.44961 13.5093 3.16826 14 5.00981 14Z" fill="white"/>
</svg>
